<svg width="24" height="24" viewBox="0 0 24 24" fill="none" xmlns="http://www.w3.org/2000/svg">
<path d="M3 21H21V4.41424C21 3.52333 19.9229 3.07716 19.2929 3.70713L12.7071 10.2929C12.3166 10.6834 11.6834 10.6834 11.2929 10.2929L9.70711 8.70713C9.31658 8.31661 8.68342 8.31661 8.29289 8.70713L3.29289 13.7071C3.10536 13.8947 3 14.149 3 14.4142V21Z" fill="#85ACB0" fill-opacity="0.32"/>
<path fill-rule="evenodd" clip-rule="evenodd" d="M18.5858 3.00001C19.8457 1.74008 22 2.63242 22 4.41423V22H2V14.4142C2 13.8838 2.21071 13.3751 2.58579 13L7.58579 8.00002C8.36683 7.21897 9.63317 7.21897 10.4142 8.00002L12 9.5858L18.5858 3.00001ZM20 4.41423L13.4142 11C12.6332 11.7811 11.3668 11.7811 10.5858 11L9 9.41423L4 14.4142V20H20L20 4.41423Z" fill="#85ACB0"/>
</svg>
