<svg width="24" height="24" viewBox="0 0 24 24" fill="none" xmlns="http://www.w3.org/2000/svg">
<path fill-rule="evenodd" clip-rule="evenodd" d="M6 2C5.44772 2 5 2.44772 5 3V5H3C2.44772 5 2 5.44772 2 6V15C2 15.5523 2.44772 16 3 16H5V19C5 19.5523 5.44772 20 6 20C6.55228 20 7 19.5523 7 19V16H9C9.55228 16 10 15.5523 10 15V6C10 5.44772 9.55228 5 9 5H7V3C7 2.44772 6.55228 2 6 2Z" fill="#85ACB0"/>
<path fill-rule="evenodd" clip-rule="evenodd" d="M18 2C17.4477 2 17 2.44772 17 3V7H15C14.4477 7 14 7.44771 14 8V18C14 18.5523 14.4477 19 15 19H17V21C17 21.5523 17.4477 22 18 22C18.5523 22 19 21.5523 19 21V19H21C21.5523 19 22 18.5523 22 18V8C22 7.44772 21.5523 7 21 7H19V3C19 2.44772 18.5523 2 18 2Z" fill="#FF444F"/>
</svg>
