<svg width="24" height="24" viewBox="0 0 24 24" fill="none" xmlns="http://www.w3.org/2000/svg">
<path d="M17 4C18.6569 4 20 5.34315 20 7C20 8.32141 19.1457 9.44329 17.9592 9.84338C17.662 14.6011 15.7336 17.6744 12.1709 18.9699C12.0605 19.01 11.9395 19.01 11.8291 18.9699C7.94165 17.5563 6 14.026 6 8.5C6 8.26487 6.16383 8.0615 6.39358 8.01146C7.36579 7.79968 8.23768 7.48263 9.01057 7.06105C9.98979 6.52694 10.8709 5.88614 11.6549 5.13822C11.8481 4.95393 12.1519 4.95393 12.3451 5.13822C12.8675 5.63656 13.433 6.08734 14.0419 6.49069C14.2857 5.07576 15.5172 4 17 4ZM12 6.178L11.6897 6.44659C11.0147 7.00959 10.2811 7.5071 9.48943 7.93895C8.97406 8.22005 8.4218 8.45836 7.83292 8.65402L7.3844 8.79278L7.003 8.895L7.01173 9.22076C7.16016 13.693 8.71648 16.5339 11.6776 17.8327L11.9277 17.9374L12 17.965L12.0723 17.9374C15.0159 16.7624 16.6417 14.1431 16.9471 9.99859L17 10C15.582 10 14.3938 9.01621 14.0807 7.69393C13.5776 7.39677 13.0992 7.07103 12.6457 6.71721L12.3103 6.44659L12 6.178ZM12 8C12.2455 8 12.4496 8.17688 12.4919 8.41012L12.5 8.5V15.5C12.5 15.7761 12.2761 16 12 16C11.7545 16 11.5504 15.8231 11.5081 15.5899L11.5 15.5V8.5C11.5 8.22386 11.7239 8 12 8ZM17 5C15.8954 5 15 5.89543 15 7C15 8.10457 15.8954 9 17 9C18.1046 9 19 8.10457 19 7C19 5.89543 18.1046 5 17 5ZM17.5 6.5C17.7761 6.5 18 6.72386 18 7C18 7.24546 17.8231 7.44961 17.5899 7.49194L17.5 7.5H16.5C16.2239 7.5 16 7.27614 16 7C16 6.75454 16.1769 6.55039 16.4101 6.50806L16.5 6.5H17.5Z" fill="#6E6E6E"/>
</svg>
