<svg width="32" height="32" viewBox="0 0 32 32" fill="none" xmlns="http://www.w3.org/2000/svg">
<rect width="32" height="32" fill="#151717"/>
<path d="M17.41 9.71011C17.2243 9.52416 17.0037 9.37664 16.7609 9.27599C16.5181 9.17534 16.2578 9.12354 15.995 9.12354C15.7322 9.12354 15.4719 9.17534 15.2291 9.27599C14.9863 9.37664 14.7657 9.52416 14.58 9.71011L11 13.2501C11.3743 13.6196 11.8791 13.8267 12.405 13.8267C12.9309 13.8267 13.4357 13.6196 13.81 13.2501L15 12.1301V23.0001L17 22.0001V12.1301L18.13 13.2601C18.5047 13.6326 19.0116 13.8417 19.54 13.8417C20.0684 13.8417 20.5753 13.6326 20.95 13.2601L17.41 9.71011Z" fill="white"/>
</svg>
