<svg width="32" height="32" viewBox="0 0 32 32" fill="none" xmlns="http://www.w3.org/2000/svg">
<rect width="32" height="32" fill="#151717"/>
<path d="M15 19.17L13.87 18C13.4953 17.6275 12.9884 17.4184 12.46 17.4184C11.9316 17.4184 11.4247 17.6275 11.05 18H11L14.55 21.55C14.7357 21.736 14.9563 21.8835 15.1991 21.9841C15.4419 22.0848 15.7022 22.1366 15.965 22.1366C16.2278 22.1366 16.4881 22.0848 16.7309 21.9841C16.9737 21.8835 17.1943 21.736 17.38 21.55L21 18C20.6257 17.6305 20.1209 17.4234 19.595 17.4234C19.0691 17.4234 18.5643 17.6305 18.19 18L17 19.17V9L15 10V19.17Z" fill="white"/>
</svg>
