<svg width="32" height="32" viewBox="0 0 32 32" fill="none" xmlns="http://www.w3.org/2000/svg">
<g clip-path="url(#clip0)">
<path d="M29 2H17C16.4477 2 16 2.44772 16 3V9C16 9.55228 16.4477 10 17 10H29C29.5523 10 30 9.55228 30 9V3C30 2.44772 29.5523 2 29 2Z" fill="white"/>
<path d="M18.1198 8.26998V7.65998H19.3898V4.25998H19.3398L18.2898 5.38998L17.8398 4.99998L18.9998 3.72998H20.1098V7.65998H21.2198V8.26998H18.1198Z" fill="#2A2A2A"/>
<path d="M22.8798 8.3499C22.6241 8.35357 22.371 8.29884 22.1398 8.1899C21.9324 8.08386 21.7566 7.92524 21.6298 7.7299C21.479 7.50698 21.3768 7.25487 21.3298 6.9899C21.257 6.6617 21.2234 6.32602 21.2298 5.9899C21.2234 5.65379 21.257 5.31811 21.3298 4.9899C21.379 4.72558 21.481 4.4739 21.6298 4.2499C21.7566 4.05456 21.9324 3.89594 22.1398 3.7899C22.371 3.68096 22.6241 3.62624 22.8798 3.6299C23.1228 3.61467 23.3655 3.664 23.5833 3.77289C23.801 3.88178 23.9861 4.04635 24.1198 4.2499C24.4206 4.78188 24.5596 5.39007 24.5198 5.9999C24.5556 6.60304 24.4168 7.20373 24.1198 7.7299C23.9861 7.93345 23.801 8.09802 23.5833 8.20692C23.3655 8.31581 23.1228 8.36514 22.8798 8.3499ZM22.8798 7.7199C23.0185 7.7234 23.1559 7.69248 23.2798 7.6299C23.393 7.56666 23.4865 7.47318 23.5498 7.3599C23.6236 7.22959 23.6743 7.0875 23.6998 6.9399C23.716 6.76027 23.716 6.57954 23.6998 6.3999V5.5999C23.716 5.42027 23.716 5.23954 23.6998 5.0599C23.6743 4.91231 23.6236 4.77022 23.5498 4.6399C23.4865 4.52662 23.393 4.43314 23.2798 4.3699C23.1559 4.30732 23.0185 4.2764 22.8798 4.2799C22.741 4.27555 22.6033 4.30651 22.4798 4.3699C22.3665 4.43314 22.273 4.52662 22.2098 4.6399C22.1359 4.77022 22.0852 4.91231 22.0598 5.0599C22.0431 5.23952 22.0431 5.42029 22.0598 5.5999V6.3999C22.0431 6.57952 22.0431 6.76029 22.0598 6.9399C22.0852 7.0875 22.1359 7.22959 22.2098 7.3599C22.273 7.47318 22.3665 7.56666 22.4798 7.6299C22.6033 7.69329 22.741 7.72426 22.8798 7.7199Z" fill="#2A2A2A"/>
<path d="M26.5202 8.34991C26.2645 8.35358 26.0114 8.29885 25.7802 8.18991C25.5728 8.08387 25.397 7.92525 25.2702 7.72991C25.1313 7.50756 25.0394 7.25913 25.0002 6.99991C24.9274 6.67171 24.8938 6.33603 24.9002 5.99991C24.8938 5.6638 24.9274 5.32812 25.0002 4.99991C25.0494 4.73559 25.1514 4.48391 25.3002 4.25991C25.427 4.06457 25.6028 3.90595 25.8102 3.79991C26.0414 3.69097 26.2945 3.63625 26.5502 3.63991C26.7932 3.62468 27.0359 3.67401 27.2537 3.7829C27.4715 3.89179 27.6566 4.05636 27.7902 4.25991C28.0787 4.79212 28.2071 5.39637 28.1602 5.99991C28.1961 6.60305 28.0572 7.20374 27.7602 7.72991C27.6266 7.93346 27.4415 8.09803 27.2237 8.20693C27.0059 8.31582 26.7632 8.36515 26.5202 8.34991ZM26.5202 7.71991C26.6589 7.72341 26.7963 7.69249 26.9202 7.62991C27.0335 7.56667 27.1269 7.47319 27.1902 7.35991C27.264 7.2296 27.3147 7.08751 27.3402 6.93991C27.3564 6.76028 27.3564 6.57955 27.3402 6.39991V5.59991C27.3564 5.42028 27.3564 5.23955 27.3402 5.05991C27.3147 4.91232 27.264 4.77023 27.1902 4.63991C27.1269 4.52663 27.0335 4.43315 26.9202 4.36991C26.7963 4.30733 26.6589 4.27641 26.5202 4.27991C26.3814 4.27556 26.2437 4.30652 26.1202 4.36991C26.0069 4.43315 25.9134 4.52663 25.8502 4.63991C25.7763 4.77023 25.7256 4.91232 25.7002 5.05991C25.6668 5.23797 25.65 5.41875 25.6502 5.59991V6.39991C25.65 6.58107 25.6668 6.76185 25.7002 6.93991C25.7256 7.08751 25.7763 7.2296 25.8502 7.35991C25.9134 7.47319 26.0069 7.56667 26.1202 7.62991C26.2437 7.6933 26.3814 7.72427 26.5202 7.71991Z" fill="#2A2A2A"/>
<path d="M6.86982 7.15C6.82334 7.10314 6.76804 7.06594 6.70711 7.04055C6.64618 7.01517 6.58082 7.0021 6.51482 7.0021C6.44881 7.0021 6.38346 7.01517 6.32253 7.04055C6.2616 7.06594 6.2063 7.10314 6.15982 7.15L4.99982 8.31V5.5C4.99982 5.36739 4.94714 5.24021 4.85337 5.14645C4.7596 5.05268 4.63243 5 4.49982 5C4.36721 5 4.24003 5.05268 4.14627 5.14645C4.0525 5.24021 3.99982 5.36739 3.99982 5.5V8.28L2.86982 7.15C2.82334 7.10314 2.76804 7.06594 2.70711 7.04055C2.64618 7.01517 2.58083 7.0021 2.51482 7.0021C2.44881 7.0021 2.38346 7.01517 2.32253 7.04055C2.2616 7.06594 2.2063 7.10314 2.15982 7.15C2.11199 7.19489 2.07387 7.24911 2.04781 7.30931C2.02175 7.3695 2.0083 7.4344 2.0083 7.5C2.0083 7.5656 2.02175 7.6305 2.04781 7.69069C2.07387 7.75089 2.11199 7.80511 2.15982 7.85L4.15982 9.85C4.24906 9.9427 4.37119 9.99658 4.49982 10C4.63495 9.99967 4.76443 9.94572 4.85982 9.85L6.85982 7.85C6.95278 7.75785 7.0059 7.63292 7.00777 7.50204C7.00964 7.37116 6.96011 7.24477 6.86982 7.15Z" fill="#EF4852"/>
<g opacity="0.5">
<path opacity="0.5" d="M26.0799 13H25.0799C24.9473 13 24.8201 12.9473 24.7263 12.8536C24.6326 12.7598 24.5799 12.6326 24.5799 12.5C24.5799 12.3674 24.6326 12.2402 24.7263 12.1464C24.8201 12.0527 24.9473 12 25.0799 12H26.0799C26.2125 12 26.3397 12.0527 26.4334 12.1464C26.5272 12.2402 26.5799 12.3674 26.5799 12.5C26.5799 12.6326 26.5272 12.7598 26.4334 12.8536C26.3397 12.9473 26.2125 13 26.0799 13ZM23.1899 13H22.1899C22.0573 13 21.9301 12.9473 21.8363 12.8536C21.7426 12.7598 21.6899 12.6326 21.6899 12.5C21.6899 12.3674 21.7426 12.2402 21.8363 12.1464C21.9301 12.0527 22.0573 12 22.1899 12H23.1899C23.3225 12 23.4497 12.0527 23.5434 12.1464C23.6372 12.2402 23.6899 12.3674 23.6899 12.5C23.6899 12.6326 23.6372 12.7598 23.5434 12.8536C23.4497 12.9473 23.3225 13 23.1899 13ZM20.3099 13H19.3099C19.1773 13 19.0501 12.9473 18.9563 12.8536C18.8626 12.7598 18.8099 12.6326 18.8099 12.5C18.8099 12.3674 18.8626 12.2402 18.9563 12.1464C19.0501 12.0527 19.1773 12 19.3099 12H20.3099C20.4425 12 20.5697 12.0527 20.6634 12.1464C20.7572 12.2402 20.8099 12.3674 20.8099 12.5C20.8099 12.6326 20.7572 12.7598 20.6634 12.8536C20.5697 12.9473 20.4425 13 20.3099 13ZM17.4199 13H16.4199C16.2873 13 16.1601 12.9473 16.0663 12.8536C15.9726 12.7598 15.9199 12.6326 15.9199 12.5C15.9199 12.3674 15.9726 12.2402 16.0663 12.1464C16.1601 12.0527 16.2873 12 16.4199 12H17.4199C17.5525 12 17.6797 12.0527 17.7734 12.1464C17.8672 12.2402 17.9199 12.3674 17.9199 12.5C17.9199 12.6326 17.8672 12.7598 17.7734 12.8536C17.6797 12.9473 17.5525 13 17.4199 13ZM14.5399 13H13.5399C13.4073 13 13.2801 12.9473 13.1863 12.8536C13.0926 12.7598 13.0399 12.6326 13.0399 12.5C13.0399 12.3674 13.0926 12.2402 13.1863 12.1464C13.2801 12.0527 13.4073 12 13.5399 12H14.5399C14.6725 12 14.7997 12.0527 14.8934 12.1464C14.9872 12.2402 15.0399 12.3674 15.0399 12.5C15.0399 12.6326 14.9872 12.7598 14.8934 12.8536C14.7997 12.9473 14.6725 13 14.5399 13ZM11.6499 13H10.6499C10.5173 13 10.3901 12.9473 10.2963 12.8536C10.2026 12.7598 10.1499 12.6326 10.1499 12.5C10.1499 12.3674 10.2026 12.2402 10.2963 12.1464C10.3901 12.0527 10.5173 12 10.6499 12H11.6499C11.7825 12 11.9097 12.0527 12.0034 12.1464C12.0972 12.2402 12.1499 12.3674 12.1499 12.5C12.1499 12.6326 12.0972 12.7598 12.0034 12.8536C11.9097 12.9473 11.7825 13 11.6499 13ZM8.76988 13H7.76988C7.63727 13 7.5101 12.9473 7.41633 12.8536C7.32256 12.7598 7.26988 12.6326 7.26988 12.5C7.26988 12.3674 7.32256 12.2402 7.41633 12.1464C7.5101 12.0527 7.63727 12 7.76988 12H8.76988C8.90249 12 9.02967 12.0527 9.12344 12.1464C9.2172 12.2402 9.26988 12.3674 9.26988 12.5C9.26988 12.6326 9.2172 12.7598 9.12344 12.8536C9.02967 12.9473 8.90249 13 8.76988 13ZM5.87988 13H4.87988C4.74727 13 4.6201 12.9473 4.52633 12.8536C4.43256 12.7598 4.37988 12.6326 4.37988 12.5C4.37988 12.3674 4.43256 12.2402 4.52633 12.1464C4.6201 12.0527 4.74727 12 4.87988 12H5.87988C6.01249 12 6.13967 12.0527 6.23344 12.1464C6.3272 12.2402 6.37988 12.3674 6.37988 12.5C6.37988 12.6326 6.3272 12.7598 6.23344 12.8536C6.13967 12.9473 6.01249 13 5.87988 13Z" fill="#D6DADB"/>
<path opacity="0.5" d="M3 13H2.5C2.36739 13 2.24021 12.9473 2.14645 12.8536C2.05268 12.7598 2 12.6326 2 12.5C2 12.3674 2.05268 12.2402 2.14645 12.1464C2.24021 12.0527 2.36739 12 2.5 12H3C3.13261 12 3.25979 12.0527 3.35355 12.1464C3.44732 12.2402 3.5 12.3674 3.5 12.5C3.5 12.6326 3.44732 12.7598 3.35355 12.8536C3.25979 12.9473 3.13261 13 3 13Z" fill="#D6DADB"/>
</g>
<g opacity="0.5">
<path opacity="0.5" d="M29.5 23H29C28.8674 23 28.7402 22.9473 28.6464 22.8536C28.5527 22.7598 28.5 22.6326 28.5 22.5C28.5 22.3674 28.5527 22.2402 28.6464 22.1464C28.7402 22.0527 28.8674 22 29 22H29.5C29.6326 22 29.7598 22.0527 29.8536 22.1464C29.9473 22.2402 30 22.3674 30 22.5C30 22.6326 29.9473 22.7598 29.8536 22.8536C29.7598 22.9473 29.6326 23 29.5 23Z" fill="#D6DADB"/>
<path opacity="0.5" d="M27.0799 23H26.0799C25.9473 23 25.8201 22.9473 25.7263 22.8536C25.6326 22.7598 25.5799 22.6326 25.5799 22.5C25.5799 22.3674 25.6326 22.2402 25.7263 22.1464C25.8201 22.0527 25.9473 22 26.0799 22H27.0799C27.2125 22 27.3397 22.0527 27.4334 22.1464C27.5272 22.2402 27.5799 22.3674 27.5799 22.5C27.5799 22.6326 27.5272 22.7598 27.4334 22.8536C27.3397 22.9473 27.2125 23 27.0799 23ZM24.1899 23H23.1899C23.0573 23 22.9301 22.9473 22.8363 22.8536C22.7426 22.7598 22.6899 22.6326 22.6899 22.5C22.6899 22.3674 22.7426 22.2402 22.8363 22.1464C22.9301 22.0527 23.0573 22 23.1899 22H24.1899C24.3225 22 24.4497 22.0527 24.5434 22.1464C24.6372 22.2402 24.6899 22.3674 24.6899 22.5C24.6899 22.6326 24.6372 22.7598 24.5434 22.8536C24.4497 22.9473 24.3225 23 24.1899 23ZM21.3099 23H20.3099C20.1773 23 20.0501 22.9473 19.9563 22.8536C19.8626 22.7598 19.8099 22.6326 19.8099 22.5C19.8099 22.3674 19.8626 22.2402 19.9563 22.1464C20.0501 22.0527 20.1773 22 20.3099 22H21.3099C21.4425 22 21.5697 22.0527 21.6634 22.1464C21.7572 22.2402 21.8099 22.3674 21.8099 22.5C21.8099 22.6326 21.7572 22.7598 21.6634 22.8536C21.5697 22.9473 21.4425 23 21.3099 23ZM18.4199 23H17.4199C17.2873 23 17.1601 22.9473 17.0663 22.8536C16.9726 22.7598 16.9199 22.6326 16.9199 22.5C16.9199 22.3674 16.9726 22.2402 17.0663 22.1464C17.1601 22.0527 17.2873 22 17.4199 22H18.4199C18.5525 22 18.6797 22.0527 18.7734 22.1464C18.8672 22.2402 18.9199 22.3674 18.9199 22.5C18.9199 22.6326 18.8672 22.7598 18.7734 22.8536C18.6797 22.9473 18.5525 23 18.4199 23ZM15.5399 23H14.5399C14.4073 23 14.2801 22.9473 14.1863 22.8536C14.0926 22.7598 14.0399 22.6326 14.0399 22.5C14.0399 22.3674 14.0926 22.2402 14.1863 22.1464C14.2801 22.0527 14.4073 22 14.5399 22H15.5399C15.6725 22 15.7997 22.0527 15.8934 22.1464C15.9872 22.2402 16.0399 22.3674 16.0399 22.5C16.0399 22.6326 15.9872 22.7598 15.8934 22.8536C15.7997 22.9473 15.6725 23 15.5399 23ZM12.6499 23H11.6499C11.5173 23 11.3901 22.9473 11.2963 22.8536C11.2026 22.7598 11.1499 22.6326 11.1499 22.5C11.1499 22.3674 11.2026 22.2402 11.2963 22.1464C11.3901 22.0527 11.5173 22 11.6499 22H12.6499C12.7825 22 12.9097 22.0527 13.0034 22.1464C13.0972 22.2402 13.1499 22.3674 13.1499 22.5C13.1499 22.6326 13.0972 22.7598 13.0034 22.8536C12.9097 22.9473 12.7825 23 12.6499 23ZM9.76988 23H8.76988C8.63727 23 8.5101 22.9473 8.41633 22.8536C8.32256 22.7598 8.26988 22.6326 8.26988 22.5C8.26988 22.3674 8.32256 22.2402 8.41633 22.1464C8.5101 22.0527 8.63727 22 8.76988 22H9.76988C9.90249 22 10.0297 22.0527 10.1234 22.1464C10.2172 22.2402 10.2699 22.3674 10.2699 22.5C10.2699 22.6326 10.2172 22.7598 10.1234 22.8536C10.0297 22.9473 9.90249 23 9.76988 23ZM6.87988 23H5.87988C5.74727 23 5.6201 22.9473 5.52633 22.8536C5.43256 22.7598 5.37988 22.6326 5.37988 22.5C5.37988 22.3674 5.43256 22.2402 5.52633 22.1464C5.6201 22.0527 5.74727 22 5.87988 22H6.87988C7.01249 22 7.13967 22.0527 7.23344 22.1464C7.3272 22.2402 7.37988 22.3674 7.37988 22.5C7.37988 22.6326 7.3272 22.7598 7.23344 22.8536C7.13967 22.9473 7.01249 23 6.87988 23Z" fill="#D6DADB"/>
</g>
<path d="M29.8499 27.1499L27.8499 25.1499C27.8076 25.0993 27.7523 25.0613 27.6899 25.0399C27.5681 24.9899 27.4316 24.9899 27.3099 25.0399C27.2475 25.0613 27.1921 25.0993 27.1499 25.1499L25.1499 27.1499C25.057 27.2428 25.0049 27.3687 25.0049 27.4999C25.0049 27.6312 25.057 27.7571 25.1499 27.8499C25.2427 27.9428 25.3686 27.9949 25.4999 27.9949C25.6311 27.9949 25.757 27.9428 25.8499 27.8499L26.9999 26.7099V29.4999C26.9999 29.6326 27.0525 29.7597 27.1463 29.8535C27.2401 29.9473 27.3672 29.9999 27.4999 29.9999C27.6325 29.9999 27.7596 29.9473 27.8534 29.8535C27.9472 29.7597 27.9999 29.6326 27.9999 29.4999V26.7099L29.1499 27.8499C29.1947 27.8978 29.249 27.9359 29.3092 27.962C29.3694 27.988 29.4343 28.0015 29.4999 28.0015C29.5655 28.0015 29.6304 27.988 29.6906 27.962C29.7507 27.9359 29.805 27.8978 29.8499 27.8499C29.8977 27.8051 29.9358 27.7508 29.9619 27.6906C29.9879 27.6304 30.0014 27.5655 30.0014 27.4999C30.0014 27.4344 29.9879 27.3695 29.9619 27.3093C29.9358 27.2491 29.8977 27.1948 29.8499 27.1499Z" fill="#84AAAF"/>
<path d="M28.5 12C28.236 12.0005 27.9768 12.0708 27.7486 12.2036C27.5204 12.3364 27.3314 12.5271 27.2005 12.7564C27.0696 12.9857 27.0016 13.2454 27.0032 13.5095C27.0049 13.7735 27.0762 14.0324 27.21 14.26L24 18.1C23.834 18.0361 23.6579 18.0022 23.48 18C23.2005 18.0026 22.9272 18.0821 22.69 18.23L19.91 16C19.9709 15.8404 20.0014 15.6708 20 15.5C20.0021 15.2739 19.953 15.0503 19.8565 14.8459C19.76 14.6415 19.6185 14.4615 19.4427 14.3195C19.2668 14.1774 19.0612 14.0769 18.841 14.0255C18.6209 13.9742 18.392 13.9732 18.1714 14.0227C17.9508 14.0722 17.7443 14.171 17.5673 14.3116C17.3903 14.4521 17.2473 14.6309 17.1491 14.8345C17.0508 15.0381 16.9999 15.2613 17.0001 15.4874C17.0002 15.7134 17.0515 15.9365 17.15 16.14L14.15 19.14C13.9464 19.0456 13.7244 18.9978 13.5 19C13.1517 18.9996 12.8148 19.1237 12.55 19.35L10 17.8C10.0098 17.7002 10.0098 17.5997 10 17.5C10 17.1022 9.84197 16.7206 9.56066 16.4393C9.27936 16.158 8.89783 16 8.5 16C8.10218 16 7.72064 16.158 7.43934 16.4393C7.15804 16.7206 7 17.1022 7 17.5C6.9998 17.6674 7.03031 17.8335 7.09 17.99L4.29 20.23C4.05282 20.0821 3.77947 20.0026 3.5 20C3.20333 20 2.91332 20.0879 2.66665 20.2528C2.41997 20.4176 2.22771 20.6519 2.11418 20.926C2.00065 21.2 1.97094 21.5016 2.02882 21.7926C2.0867 22.0836 2.22956 22.3509 2.43934 22.5606C2.64912 22.7704 2.91639 22.9133 3.20737 22.9712C3.49834 23.029 3.79994 22.9993 4.07403 22.8858C4.34811 22.7723 4.58238 22.58 4.7472 22.3333C4.91203 22.0867 5 21.7966 5 21.5C5.00144 21.3292 4.97091 21.1596 4.91 21L7.71 18.76C7.94615 18.9113 8.21957 18.9944 8.5 19C8.84828 19.0004 9.18521 18.8762 9.45 18.65L12 20.2C11.9902 20.2997 11.9902 20.4002 12 20.5C11.9979 20.726 12.047 20.9496 12.1435 21.154C12.24 21.3585 12.3815 21.5384 12.5573 21.6805C12.7332 21.8226 12.9388 21.923 13.159 21.9744C13.3791 22.0258 13.608 22.0268 13.8286 21.9772C14.0492 21.9277 14.2557 21.829 14.4327 21.6884C14.6098 21.5478 14.7527 21.369 14.8509 21.1654C14.9492 20.9618 15.0001 20.7387 14.9999 20.5126C14.9998 20.2865 14.9485 20.0634 14.85 19.86L17.85 16.86C18.0751 16.9706 18.325 17.0214 18.5755 17.0074C18.826 16.9934 19.0686 16.915 19.28 16.78L22.09 19C22.0303 19.1564 21.9998 19.3225 22 19.49C21.9992 19.721 22.0517 19.9492 22.1536 20.1566C22.2554 20.364 22.4038 20.5451 22.5872 20.6857C22.7705 20.8263 22.9839 20.9226 23.2106 20.9672C23.4373 21.0118 23.6713 21.0034 23.8942 20.9427C24.1172 20.8819 24.3231 20.7705 24.4959 20.6171C24.6687 20.4637 24.8037 20.2725 24.8904 20.0583C24.9771 19.8441 25.0131 19.6128 24.9957 19.3824C24.9783 19.152 24.9079 18.9287 24.79 18.73L28 14.9C28.207 14.9794 28.429 15.0119 28.6501 14.9953C28.8712 14.9786 29.0858 14.9131 29.2785 14.8036C29.4713 14.694 29.6373 14.5431 29.7648 14.3617C29.8922 14.1803 29.9778 13.9729 30.0155 13.7544C30.0532 13.5359 30.0419 13.3118 29.9826 13.0982C29.9233 12.8845 29.8174 12.6867 29.6724 12.519C29.5275 12.3512 29.3472 12.2176 29.1445 12.1279C28.9417 12.0381 28.7216 11.9945 28.5 12ZM3.5 22C3.40111 22 3.30444 21.9707 3.22222 21.9157C3.13999 21.8608 3.0759 21.7827 3.03806 21.6913C3.00022 21.6 2.99032 21.4994 3.00961 21.4024C3.0289 21.3054 3.07652 21.2163 3.14645 21.1464C3.21637 21.0765 3.30546 21.0289 3.40246 21.0096C3.49945 20.9903 3.59998 21.0002 3.69134 21.038C3.78271 21.0759 3.86079 21.14 3.91574 21.2222C3.97068 21.3044 4 21.4011 4 21.5C4 21.6326 3.94732 21.7598 3.85355 21.8535C3.75979 21.9473 3.63261 22 3.5 22ZM8.5 18C8.40111 18 8.30444 17.9707 8.22222 17.9157C8.13999 17.8608 8.0759 17.7827 8.03806 17.6913C8.00022 17.6 7.99031 17.4994 8.00961 17.4024C8.0289 17.3054 8.07652 17.2163 8.14645 17.1464C8.21637 17.0765 8.30546 17.0289 8.40245 17.0096C8.49945 16.9903 8.59998 17.0002 8.69134 17.038C8.7827 17.0759 8.8608 17.14 8.91574 17.2222C8.97068 17.3044 9 17.4011 9 17.5C9 17.6326 8.94732 17.7598 8.85355 17.8535C8.75979 17.9473 8.63261 18 8.5 18ZM13.5 21C13.4011 21 13.3044 20.9707 13.2222 20.9157C13.14 20.8608 13.0759 20.7827 13.0381 20.6913C13.0002 20.6 12.9903 20.4994 13.0096 20.4024C13.0289 20.3054 13.0765 20.2163 13.1464 20.1464C13.2164 20.0765 13.3055 20.0289 13.4025 20.0096C13.4994 19.9903 13.6 20.0002 13.6913 20.038C13.7827 20.0759 13.8608 20.14 13.9157 20.2222C13.9707 20.3044 14 20.4011 14 20.5C14 20.6326 13.9473 20.7598 13.8536 20.8535C13.7598 20.9473 13.6326 21 13.5 21ZM18.5 16C18.4011 16 18.3044 15.9707 18.2222 15.9157C18.14 15.8608 18.0759 15.7827 18.0381 15.6913C18.0002 15.6 17.9903 15.4994 18.0096 15.4024C18.0289 15.3054 18.0765 15.2163 18.1464 15.1464C18.2164 15.0765 18.3055 15.0289 18.4025 15.0096C18.4994 14.9903 18.6 15.0002 18.6913 15.038C18.7827 15.0759 18.8608 15.14 18.9157 15.2222C18.9707 15.3044 19 15.4011 19 15.5C19 15.6326 18.9473 15.7598 18.8536 15.8535C18.7598 15.9473 18.6326 16 18.5 16ZM23.5 20C23.4011 20 23.3044 19.9707 23.2222 19.9157C23.14 19.8608 23.0759 19.7827 23.0381 19.6913C23.0002 19.6 22.9903 19.4994 23.0096 19.4024C23.0289 19.3054 23.0765 19.2163 23.1464 19.1464C23.2164 19.0765 23.3055 19.0289 23.4025 19.0096C23.4994 18.9903 23.6 19.0002 23.6913 19.038C23.7827 19.0759 23.8608 19.14 23.9157 19.2222C23.9707 19.3044 24 19.4011 24 19.5C24 19.6326 23.9473 19.7598 23.8536 19.8535C23.7598 19.9473 23.6326 20 23.5 20ZM28.5 14C28.4011 14 28.3044 13.9707 28.2222 13.9157C28.14 13.8608 28.0759 13.7827 28.0381 13.6913C28.0002 13.6 27.9903 13.4994 28.0096 13.4024C28.0289 13.3054 28.0765 13.2163 28.1464 13.1464C28.2164 13.0765 28.3055 13.0289 28.4025 13.0096C28.4994 12.9903 28.6 13.0002 28.6913 13.038C28.7827 13.0759 28.8608 13.14 28.9157 13.2222C28.9707 13.3044 29 13.4011 29 13.5C29 13.6326 28.9473 13.7598 28.8536 13.8535C28.7598 13.9473 28.6326 14 28.5 14Z" fill="white"/>
</g>
<defs>
<clipPath id="clip0">
<rect width="32" height="32" fill="white"/>
</clipPath>
</defs>
</svg>
